<svg width="24" height="24" viewBox="0 0 24 24" fill="none" xmlns="http://www.w3.org/2000/svg">
<path fill-rule="evenodd" clip-rule="evenodd" d="M13.0601 16.06C12.7788 16.3409 12.3976 16.4987 12.0001 16.4987C11.6026 16.4987 11.2213 16.3409 10.9401 16.06L5.28209 10.404C5.00083 10.1226 4.84287 9.74101 4.84296 9.34315C4.84305 8.94529 5.00119 8.56377 5.28259 8.2825C5.56398 8.00124 5.94558 7.84328 6.34344 7.84338C6.7413 7.84347 7.12283 8.00161 7.40409 8.283L12.0001 12.879L16.5961 8.283C16.8789 8.00963 17.2577 7.85826 17.651 7.86149C18.0443 7.86472 18.4206 8.0223 18.6988 8.30028C18.9771 8.57826 19.135 8.95441 19.1386 9.3477C19.1422 9.741 18.9912 10.12 18.7181 10.403L13.0611 16.061L13.0601 16.06Z" fill="black"/>
</svg>
