<svg width="25" height="25" viewBox="0 0 25 25" fill="none" xmlns="http://www.w3.org/2000/svg">
<g clip-path="url(#clip0_2001_289)">
<path d="M12.624 0.5C9.44215 0.5 6.38777 1.76506 4.13965 4.01469C1.8892 6.26521 0.624647 9.31734 0.624023 12.5C0.624023 15.6813 1.88965 18.7357 4.13965 20.9853C6.38777 23.2349 9.44215 24.5 12.624 24.5C15.8059 24.5 18.8603 23.2349 21.1084 20.9853C23.3584 18.7357 24.624 15.6813 24.624 12.5C24.624 9.31869 23.3584 6.26431 21.1084 4.01469C18.8603 1.76506 15.8059 0.5 12.624 0.5Z" fill="url(#paint0_linear_2001_289)"/>
<path d="M6.05587 12.3733C9.55462 10.8493 11.8871 9.84448 13.0534 9.35904C16.3871 7.97285 17.079 7.7321 17.5309 7.72395C17.6302 7.72235 17.8515 7.74692 17.9959 7.86364C18.1159 7.96207 18.1496 8.0952 18.1665 8.18867C18.1815 8.28204 18.2021 8.49485 18.1852 8.66098C18.0052 10.5585 17.2234 15.1631 16.8259 17.2884C16.659 18.1877 16.3271 18.4892 16.0065 18.5186C15.309 18.5827 14.7802 18.0581 14.1052 17.6158C13.0496 16.9234 12.4534 16.4925 11.4277 15.8169C10.2427 15.0362 11.0115 14.607 11.6865 13.9057C11.8627 13.7222 14.934 10.9294 14.9921 10.676C14.9996 10.6444 15.0071 10.5262 14.9359 10.464C14.8665 10.4015 14.7634 10.4229 14.6884 10.4398C14.5815 10.4638 12.8959 11.579 9.62587 13.7854C9.14774 14.1142 8.71462 14.2745 8.32462 14.2661C7.89712 14.2569 7.07212 14.0239 6.45899 13.8247C5.70899 13.5804 5.11087 13.4512 5.16337 13.0363C5.18962 12.8203 5.48774 12.5992 6.05587 12.3733Z" fill="white"/>
</g>
<defs>
<linearGradient id="paint0_linear_2001_289" x1="1200.62" y1="0.5" x2="1200.62" y2="2400.5" gradientUnits="userSpaceOnUse">
<stop stop-color="#2AABEE"/>
<stop offset="1" stop-color="#229ED9"/>
</linearGradient>
<clipPath id="clip0_2001_289">
<rect width="24" height="24" fill="white" transform="translate(0.624023 0.5)"/>
</clipPath>
</defs>
</svg>
