<svg width="33" height="33" viewBox="0 0 33 33" fill="none" xmlns="http://www.w3.org/2000/svg">
<g clip-path="url(#clip0_2001_292)">
<path d="M1.30158 16.3086C1.30084 18.9972 2.00335 21.6224 3.33916 23.9363L1.17383 31.8423L9.26462 29.7209C11.5024 30.9391 14.0097 31.5775 16.5576 31.5776H16.5643C24.9755 31.5776 31.8224 24.7332 31.826 16.3206C31.8276 12.2441 30.2415 8.41076 27.3598 5.52679C24.4785 2.64307 20.6466 1.05411 16.5637 1.05225C8.15157 1.05225 1.30518 7.89628 1.3017 16.3086" fill="url(#paint0_linear_2001_292)"/>
<path d="M0.756737 16.3035C0.755868 19.0889 1.48356 21.808 2.867 24.2048L0.624023 32.3942L9.00492 30.1967C11.3141 31.4558 13.9141 32.1196 16.5597 32.1206H16.5665C25.2794 32.1206 32.3722 25.03 32.376 16.3162C32.3774 12.0932 30.7343 8.12208 27.7496 5.13479C24.7645 2.14788 20.7956 0.501736 16.5665 0.5C7.85205 0.5 0.760209 7.58961 0.756737 16.3035ZM5.74787 23.792L5.43494 23.2953C4.11947 21.2036 3.42514 18.7865 3.42613 16.3045C3.42886 9.06174 9.32331 3.16915 16.5714 3.16915C20.0815 3.17064 23.3802 4.53895 25.8614 7.02155C28.3423 9.5044 29.7076 12.8049 29.7067 16.3152C29.7035 23.558 23.8089 29.4513 16.5665 29.4513H16.5613C14.2031 29.4501 11.8903 28.8168 9.87326 27.62L9.39326 27.3353L4.41987 28.6393L5.74787 23.792Z" fill="url(#paint1_linear_2001_292)"/>
<path d="M12.6151 9.69662C12.3191 9.03888 12.0077 9.02561 11.7263 9.01407C11.4958 9.00415 11.2324 9.0049 10.9692 9.0049C10.7057 9.0049 10.2777 9.104 9.9159 9.49904C9.55373 9.89445 8.5332 10.85 8.5332 12.7934C8.5332 14.737 9.94877 16.6152 10.1461 16.879C10.3437 17.1423 12.8789 21.2582 16.894 22.8415C20.2309 24.1574 20.91 23.8957 21.6342 23.8297C22.3586 23.764 23.9715 22.8744 24.3005 21.952C24.6298 21.0297 24.6298 20.2391 24.5311 20.0739C24.4324 19.9093 24.1689 19.8105 23.7739 19.613C23.3787 19.4154 21.4366 18.4598 21.0746 18.3279C20.7124 18.1962 20.4491 18.1305 20.1857 18.526C19.9222 18.9209 19.1658 19.8105 18.9352 20.0739C18.7049 20.338 18.4743 20.3708 18.0794 20.1733C17.6841 19.9751 16.4119 19.5584 14.9026 18.2128C13.7282 17.1658 12.9354 15.8727 12.705 15.4772C12.4745 15.0823 12.6803 14.8682 12.8784 14.6714C13.0559 14.4944 13.2735 14.2101 13.4712 13.9795C13.6682 13.7488 13.7339 13.5842 13.8657 13.3208C13.9975 13.0571 13.9315 12.8264 13.8329 12.6288C13.7339 12.4313 12.9663 10.4776 12.6151 9.69662Z" fill="white"/>
</g>
<defs>
<linearGradient id="paint0_linear_2001_292" x1="1533.78" y1="3080.06" x2="1533.78" y2="1.05225" gradientUnits="userSpaceOnUse">
<stop stop-color="#1FAF38"/>
<stop offset="1" stop-color="#60D669"/>
</linearGradient>
<linearGradient id="paint1_linear_2001_292" x1="1588.22" y1="3189.92" x2="1588.22" y2="0.5" gradientUnits="userSpaceOnUse">
<stop stop-color="#F9F9F9"/>
<stop offset="1" stop-color="white"/>
</linearGradient>
<clipPath id="clip0_2001_292">
<rect width="31.7519" height="32" fill="white" transform="translate(0.624023 0.5)"/>
</clipPath>
</defs>
</svg>
